# Blender v2.91.2 OBJ File: ''
# www.blender.org
mtllib House_Two.mtl
o House_Two_Mesh.005
v 7.260970 1.808270 -2.366660
v 10.946613 1.802217 -2.366660
v 9.106817 3.690429 -2.366660
v 10.946613 0.670500 -2.366661
v 7.254917 0.676552 -2.366661
v 7.257944 1.805245 -6.333887
v 7.254917 0.673527 -6.333887
v 10.946613 0.673527 -6.333887
v 10.943587 1.805245 -6.333887
v 9.094714 3.690431 -6.338497
v 11.087685 1.666318 -2.149617
v 9.106817 3.690429 -6.553317
v 9.106817 3.690429 -2.149616
v 7.119899 1.672372 -6.553318
v 7.119899 1.672369 -2.149617
v 9.421511 3.356516 -3.984889
v 8.821510 4.112921 -3.984888
v 8.821510 3.356516 -3.984889
v 9.421511 4.112921 -3.984888
v 8.821510 4.112921 -4.584889
v 9.421511 4.112921 -4.584889
v 8.821510 3.356516 -4.584889
v 9.421511 3.356516 -4.584889
v 9.970544 0.673050 -2.321681
v 10.120648 1.264870 -2.259505
v 10.120648 0.673050 -2.259507
v 9.820440 0.673050 -2.259507
v 9.970544 1.264870 -2.321681
v 9.758265 0.673050 -2.109402
v 9.820440 1.264870 -2.259505
v 9.820440 0.673050 -1.959298
v 9.758265 1.264870 -2.109402
v 9.970544 0.673050 -1.897122
v 9.820440 1.264870 -1.959298
v 10.120648 0.673050 -1.959298
v 9.970544 1.264870 -1.897122
v 10.182823 0.673050 -2.109402
v 10.120648 1.264870 -1.959298
v 10.182823 1.264870 -2.109402
v 9.970544 1.264870 -2.109402
v 11.087685 1.666319 -6.553318
vt 0.450742 0.067164
vt 0.646977 0.066842
vt 0.548991 0.162854
vt 0.646977 0.009157
vt 0.211983 0.264226
vt 0.169623 0.002922
vt 0.211983 0.002922
vt 0.265202 0.263971
vt 0.221116 0.003841
vt 0.265202 0.003841
vt 0.676083 0.065285
vt 0.872318 0.064963
vt 0.773580 0.159472
vt 0.676891 0.006886
vt 0.275586 0.264513
vt 0.429628 0.004606
vt 0.429628 0.264513
vt 0.275586 0.004606
vt 0.275586 0.264513
vt 0.862965 0.767210
vt 0.817767 0.833540
vt 0.817767 0.767210
vt 0.838602 0.836348
vt 0.819936 0.855015
vt 0.819936 0.836348
vt 0.862965 0.833540
vt 0.817767 0.767210
vt 0.817767 0.833540
vt 0.815887 0.766753
vt 0.770365 0.833973
vt 0.770365 0.766753
vt 0.770365 0.766753
vt 0.815887 0.833973
vt 0.815887 0.766753
vt 0.879279 0.187343
vt 0.865694 0.224380
vt 0.865694 0.187343
vt 0.784181 0.187343
vt 0.770595 0.224380
vt 0.770595 0.187343
vt 0.797766 0.187343
vt 0.784181 0.224380
vt 0.811352 0.187343
vt 0.797766 0.224380
vt 0.824937 0.187343
vt 0.811352 0.224380
vt 0.838523 0.187343
vt 0.824937 0.224380
vt 0.852108 0.187343
vt 0.838523 0.224380
vt 0.852108 0.224380
vt 0.811735 0.248112
vt 0.802669 0.251867
vt 0.802669 0.239046
vt 0.793604 0.248112
vt 0.789849 0.239046
vt 0.793604 0.229981
vt 0.802669 0.226226
vt 0.811735 0.229981
vt 0.815490 0.239046
vt 0.451550 0.008764
vt 0.169623 0.264226
vt 0.221116 0.263971
vt 0.872318 0.007278
vt 0.275586 0.004606
vt 0.862965 0.833540
vt 0.838602 0.855015
vt 0.862965 0.767210
vt 0.815887 0.833973
vt 0.770365 0.833973
vt 0.879279 0.224380
vn -0.0000 -0.0000 1.0000
vn -1.0000 0.0049 0.0006
vn -1.0000 0.0031 0.0001
vn -1.0000 0.0027 -0.0000
vn 1.0000 0.0005 -0.0001
vn 1.0000 0.0027 -0.0008
vn 0.0000 -0.0024 -1.0000
vn 0.0000 0.0000 -1.0000
vn 0.7147 0.6994 0.0000
vn -0.7126 0.7016 0.0000
vn 0.0000 1.0000 0.0000
vn 1.0000 0.0000 0.0000
vn -1.0000 0.0000 0.0000
vn 0.3827 0.0000 -0.9239
vn -0.3827 0.0000 -0.9239
vn -0.9239 0.0000 -0.3827
vn -0.9239 0.0000 0.3827
vn -0.3827 0.0000 0.9239
vn 0.3827 0.0000 0.9239
vn 0.9239 0.0000 0.3827
vn 0.9239 0.0000 -0.3827
vn -1.0000 0.0053 0.0008
vn 1.0000 0.0022 -0.0006
usemtl Default_OBJ.003
s 1
f 1/1/1 2/2/1 3/3/1
f 1/1/1 4/4/1 2/2/1
f 5/5/2 6/6/3 7/7/4
f 2/8/5 8/9/6 9/10/6
f 9/11/7 6/12/7 10/13/7
f 8/14/8 6/12/8 9/11/8
f 11/15/9 12/16/9 13/17/9
f 13/17/10 14/18/10 15/19/10
f 16/20/1 17/21/1 18/22/1
f 19/23/11 20/24/11 17/25/11
f 21/26/8 22/27/8 20/28/8
f 23/29/12 19/30/12 16/31/12
f 18/32/13 20/33/13 22/34/13
f 24/35/14 25/36/14 26/37/14
f 27/38/15 28/39/15 24/40/15
f 29/41/16 30/42/16 27/38/16
f 31/43/17 32/44/17 29/41/17
f 33/45/18 34/46/18 31/43/18
f 35/47/19 36/48/19 33/45/19
f 37/49/20 38/50/20 35/47/20
f 26/37/21 39/51/21 37/49/21
f 25/52/11 28/53/11 40/54/11
f 28/53/11 30/55/11 40/54/11
f 30/55/11 32/56/11 40/54/11
f 32/56/11 34/57/11 40/54/11
f 34/57/11 36/58/11 40/54/11
f 36/58/11 38/59/11 40/54/11
f 38/59/11 39/60/11 40/54/11
f 39/60/11 25/52/11 40/54/11
f 1/1/1 5/61/1 4/4/1
f 5/5/2 1/62/22 6/6/3
f 2/8/5 4/63/12 8/9/23
f 8/14/8 7/64/8 6/12/8
f 11/15/9 41/65/9 12/16/9
f 13/17/10 12/16/10 14/18/10
f 16/20/1 19/66/1 17/21/1
f 19/23/11 21/67/11 20/24/11
f 21/26/8 23/68/8 22/27/8
f 23/29/12 21/69/12 19/30/12
f 18/32/13 17/70/13 20/33/13
f 24/35/14 28/71/14 25/36/14
f 27/38/15 30/42/15 28/39/15
f 29/41/16 32/44/16 30/42/16
f 31/43/17 34/46/17 32/44/17
f 33/45/18 36/48/18 34/46/18
f 35/47/19 38/50/19 36/48/19
f 37/49/20 39/51/20 38/50/20
f 26/37/21 25/36/21 39/51/21
