# Blender v2.91.2 OBJ File: ''
# www.blender.org
mtllib House_One.mtl
o House_One_Mesh
v 12.466414 0.007343 -20.882479
v 7.491160 2.573021 -20.882479
v 7.491160 0.007343 -20.882479
v 12.466414 2.573022 -25.857733
v 7.491160 0.007343 -25.857733
v 7.491160 2.573022 -25.857733
v 12.466414 0.007343 -25.857733
v 12.466414 2.573021 -20.882479
v 7.025339 2.535404 -20.416658
v 7.025339 5.610862 -26.380451
v 7.025339 2.535406 -26.380453
v 12.989134 5.610860 -20.416658
v 12.989134 2.535406 -26.380453
v 12.989134 5.610862 -26.380453
v 12.989134 2.535404 -20.416660
v 7.025339 5.610860 -20.416658
v 10.007237 7.199832 -23.398556
v 9.535394 6.163169 -25.299118
v 9.535394 7.019910 -26.155857
v 9.535394 5.690410 -26.155857
v 10.392133 7.019910 -26.155857
v 10.392133 6.163169 -25.299118
v 10.392133 5.690410 -26.155857
v 9.535394 7.019909 -25.299118
v 9.556811 7.048045 -25.320538
v 9.556811 7.048046 -26.134439
v 10.370713 7.048045 -25.320538
v 10.392133 7.019909 -25.299118
v 10.370713 7.048046 -26.134439
v 9.726375 7.048045 -25.490101
v 9.726375 7.048045 -25.964878
v 10.201151 7.048045 -25.490101
v 10.201151 7.048045 -25.964878
v 9.726375 6.702610 -25.964878
v 9.726375 6.702610 -25.490101
v 10.201151 6.702609 -25.490101
v 10.201151 6.702609 -25.964878
vt 0.484496 0.651903
vt 0.327914 0.759396
vt 0.327914 0.651903
vt 0.171463 0.758945
vt 0.015811 0.651903
vt 0.015811 0.758945
vt 0.328163 0.651903
vt 0.171383 0.759529
vt 0.171383 0.651903
vt 0.484041 0.651903
vt 0.640235 0.759238
vt 0.640235 0.651903
vt 0.200913 0.765387
vt 0.013446 0.882560
vt 0.015606 0.765387
vt 0.573613 0.882560
vt 0.388611 0.765262
vt 0.388611 0.882560
vt 0.590551 0.607199
vt 0.392801 0.409449
vt 0.392801 0.607199
vt 0.387799 0.765175
vt 0.201045 0.882560
vt 0.201045 0.765175
vt 0.574127 0.765397
vt 0.760138 0.882560
vt 0.760138 0.765397
vt 0.573380 0.882560
vt 0.387344 0.882560
vt 0.480146 0.997936
vt 0.386455 0.882560
vt 0.202244 0.882560
vt 0.294084 0.996630
vt 0.198816 0.882560
vt 0.013837 0.882560
vt 0.107660 0.997307
vt 0.761163 0.882560
vt 0.574361 0.882560
vt 0.667762 0.997972
vt 0.863513 0.788116
vt 0.840572 0.834248
vt 0.840572 0.766152
vt 0.816814 0.834217
vt 0.792816 0.787240
vt 0.816814 0.764501
vt 0.791821 0.785831
vt 0.769799 0.834595
vt 0.769799 0.785831
vt 0.817181 0.749311
vt 0.841075 0.834210
vt 0.841075 0.749311
vt 0.819574 0.836440
vt 0.838088 0.836915
vt 0.820049 0.836915
vt 0.838562 0.836440
vt 0.838088 0.854954
vt 0.819574 0.855428
vt 0.838562 0.855428
vt 0.820049 0.854954
vt 0.834330 0.840673
vt 0.823807 0.840673
vt 0.834330 0.851196
vt 0.823807 0.851196
vt 0.832832 0.841680
vt 0.824659 0.841680
vt 0.824659 0.841680
vt 0.832832 0.849853
vt 0.832832 0.841680
vt 0.824659 0.849853
vt 0.832832 0.849853
vt 0.824659 0.849853
vt 0.484496 0.759396
vt 0.171463 0.651903
vt 0.328163 0.759529
vt 0.484041 0.759238
vt 0.200913 0.882560
vt 0.573613 0.765262
vt 0.590551 0.409449
vt 0.387799 0.882560
vt 0.574127 0.882560
vt 0.863513 0.834248
vt 0.792816 0.834217
vt 0.791821 0.834595
vt 0.817181 0.834210
vn 0.0000 0.0000 1.0000
vn 0.0000 0.0000 -1.0000
vn 1.0000 0.0000 0.0000
vn -1.0000 0.0000 0.0000
vn 0.0000 -1.0000 -0.0000
vn -0.4703 0.8825 0.0000
vn 0.0000 0.8825 0.4703
vn 0.4703 0.8825 0.0000
vn 0.0000 0.8825 -0.4703
vn -0.7957 0.6057 0.0000
vn 0.0000 0.6058 0.7957
vn 0.0000 0.6057 0.7957
vn 0.7957 0.6057 0.0000
vn 0.0000 0.6057 -0.7957
vn 0.0000 1.0000 0.0000
usemtl Default_OBJ.001
s 1
f 1/1/1 2/2/1 3/3/1
f 4/4/2 5/5/2 6/6/2
f 7/7/3 8/8/3 1/9/3
f 3/10/4 6/11/4 5/12/4
f 9/13/4 10/14/4 11/15/4
f 12/16/3 13/17/3 14/18/3
f 15/19/5 11/20/5 13/21/5
f 15/22/1 16/23/1 9/24/1
f 11/25/2 14/26/2 13/27/2
f 10/28/6 16/29/6 17/30/6
f 16/31/7 12/32/7 17/33/7
f 12/34/8 14/35/8 17/36/8
f 14/37/9 10/38/9 17/39/9
f 18/40/4 19/41/4 20/42/4
f 21/43/3 22/44/3 23/45/3
f 22/46/1 24/47/1 18/48/1
f 20/49/2 21/50/2 23/51/2
f 19/52/10 25/53/10 26/54/10
f 24/55/11 27/56/12 25/53/11
f 21/57/13 27/56/13 28/58/13
f 19/52/14 29/59/14 21/57/14
f 26/54/15 30/60/15 31/61/15
f 27/56/15 30/60/15 25/53/15
f 29/59/15 32/62/15 27/56/15
f 29/59/15 31/61/15 33/63/15
f 30/64/3 34/65/3 31/66/3
f 32/67/2 35/68/2 30/64/2
f 33/69/4 36/70/4 32/67/4
f 33/69/1 34/65/1 37/71/1
f 1/1/1 8/72/1 2/2/1
f 4/4/2 7/73/2 5/5/2
f 7/7/3 4/74/3 8/8/3
f 3/10/4 2/75/4 6/11/4
f 9/13/4 16/76/4 10/14/4
f 12/16/3 15/77/3 13/17/3
f 15/19/5 9/78/5 11/20/5
f 15/22/1 12/79/1 16/23/1
f 11/25/2 10/80/2 14/26/2
f 18/40/4 24/81/4 19/41/4
f 21/43/3 28/82/3 22/44/3
f 22/46/1 28/83/1 24/47/1
f 20/49/2 19/84/2 21/50/2
f 19/52/10 24/55/10 25/53/10
f 24/55/11 28/58/12 27/56/12
f 21/57/13 29/59/13 27/56/13
f 19/52/14 26/54/14 29/59/14
f 26/54/15 25/53/15 30/60/15
f 27/56/15 32/62/15 30/60/15
f 29/59/15 33/63/15 32/62/15
f 29/59/15 26/54/15 31/61/15
f 30/64/3 35/68/3 34/65/3
f 32/67/2 36/70/2 35/68/2
f 33/69/4 37/71/4 36/70/4
f 33/69/1 31/66/1 34/65/1
